<?xml version="1.0" encoding="UTF-8" standalone="no"?>
<svg
   xmlns:dc="http://purl.org/dc/elements/1.1/"
   xmlns:cc="http://creativecommons.org/ns#"
   xmlns:rdf="http://www.w3.org/1999/02/22-rdf-syntax-ns#"
   xmlns:svg="http://www.w3.org/2000/svg"
   xmlns="http://www.w3.org/2000/svg"
   xmlns:sodipodi="http://sodipodi.sourceforge.net/DTD/sodipodi-0.dtd"
   xmlns:inkscape="http://www.inkscape.org/namespaces/inkscape"
   width="200mm"
   height="200mm"
   viewBox="0 0 200 200"
   version="1.1"
   id="svg8"
   inkscape:export-filename="/home/hasan/Downloads/microverse/portfolio2/assets/icon-profile.png"
   inkscape:export-xdpi="96"
   inkscape:export-ydpi="96"
   inkscape:version="1.0.1 (0767f8302a, 2020-10-17)"
   sodipodi:docname="icon-profile.svg">
  <defs
     id="defs2" />
  <sodipodi:namedview
     id="base"
     pagecolor="#ffffff"
     bordercolor="#666666"
     borderopacity="1.0"
     inkscape:pageopacity="0.0"
     inkscape:pageshadow="2"
     inkscape:zoom="0.45145105"
     inkscape:cx="475.34754"
     inkscape:cy="483.59506"
     inkscape:document-units="mm"
     inkscape:current-layer="layer1"
     inkscape:document-rotation="0"
     showgrid="false"
     inkscape:window-width="1344"
     inkscape:window-height="743"
     inkscape:window-x="20"
     inkscape:window-y="0"
     inkscape:window-maximized="0"
     height="210mm"
     inkscape:snap-midpoints="true"
     inkscape:snap-intersection-paths="true"
     inkscape:snap-bbox="true"
     inkscape:snap-bbox-edge-midpoints="false"
     inkscape:bbox-nodes="false"
     inkscape:bbox-paths="false"
     inkscape:snap-nodes="true" />
  <metadata
     id="metadata5">
    <rdf:RDF>
      <cc:Work
         rdf:about="">
        <dc:format>image/svg+xml</dc:format>
        <dc:type
           rdf:resource="http://purl.org/dc/dcmitype/StillImage" />
        <dc:title />
      </cc:Work>
    </rdf:RDF>
  </metadata>
  <g
     inkscape:groupmode="layer"
     id="layer2"
     inkscape:label="Layer 2"
     style="display:inline">
    <rect
       style="display:inline;fill:#ffffff;stroke-width:0.531;stroke-miterlimit:4.3;paint-order:fill markers stroke"
       id="rect11"
       width="607.07153"
       height="472.2486"
       x="-210.44528"
       y="-137.77158" />
  </g>
  <g
     inkscape:label="Layer 1"
     inkscape:groupmode="layer"
     id="layer1"
     style="display:inline">
    <path
       id="path1549-1"
       style="fill:#46c2fb;fill-opacity:1;stroke:none;stroke-width:0.499438px;stroke-linecap:butt;stroke-linejoin:miter;stroke-opacity:1"
       d="m 161.15448,37.048148 c 18.06071,10.427361 10.42736,44.503428 0,62.564139 -7.9208,13.719233 -27.43846,31.683203 -41.15769,23.762403 -18.06072,-10.42736 -10.42737,-44.503451 0,-62.564168 7.9208,-13.719224 27.43847,-31.683176 41.15769,-23.762374 z"
       sodipodi:nodetypes="sssss" />
    <path
       id="path1549-2-36-2-4-7-6-2"
       style="fill:#46c2fb;fill-opacity:1;stroke:none;stroke-width:0.492358px;stroke-linecap:butt;stroke-linejoin:miter;stroke-opacity:1"
       d="M 93.456706,53.77535 20.140601,96.919593 c 0,0 17.692954,0.608634 19.858985,7.712297 2.257463,7.40352 0.921046,10.97088 4.717244,14.21165 3.810072,3.25262 9.903661,3.34922 14.829727,2.43816 6.111006,-1.13021 12.515427,-4.32649 16.098232,-9.40441 4.504292,-6.38395 4.353434,-23.031255 4.353434,-23.031255 0,0 -1.337417,-22.702303 13.458483,-35.070685 z m -18.622344,76.17569 c -3.842419,-2.22161 -9.756993,1.68792 -13.335296,3.74798 -6.057537,3.48738 -13.425105,10.64348 -15.481628,14.14283 -2.056523,3.49935 -3.3476,8.14067 -4.270411,13.52149 -0.92281,5.38082 -1.748395,12.44766 -1.748395,12.44766 -1.27e-4,8.78698 -14.160631,26.86678 -14.160631,26.86678 C 51.81693,186.92606 101.3473,155.2806 101.3473,155.2806 c -15.014518,7.87351 -21.349814,0.64031 -21.349823,-4.72586 -1.4e-5,-8.53686 -1.320696,-18.38209 -5.163115,-20.6037 z"
       sodipodi:nodetypes="ccsaaasczszzscssz" />
    <path
       style="display:inline;fill:#faac47;fill-opacity:1;stroke:none;stroke-width:2.68602px;stroke-linecap:butt;stroke-linejoin:miter;stroke-opacity:1"
       d="M 338.03099,18.344576 -79.79234,259.57766 330.49084,253.0158 Z"
       id="path2455-9-6" />
    <path
       style="display:inline;fill:#faac47;fill-opacity:1;stroke:none;stroke-width:2.51769px;stroke-linecap:butt;stroke-linejoin:miter;stroke-opacity:1"
       d="M 302.6218,-65.817935 -89.016986,160.29734 -85.208906,-77.457222 Z"
       id="path2455" />
  </g>
</svg>
